<svg width="56" height="47" viewBox="0 0 56 47" fill="none" xmlns="http://www.w3.org/2000/svg">
<path d="M38 0.510193C39.38 0.510193 40.5 1.79934 40.5 3.38774V15.4735L53.5325 4.9704C54.0975 4.51574 54.8775 4.67401 55.275 5.32721C55.42 5.56893 55.5 5.85668 55.5 6.15019V40.911C55.5 41.7052 54.94 42.3498 54.25 42.3498C53.9925 42.3498 53.7425 42.2577 53.5325 42.0908L40.5 31.5877V43.6735C40.5 45.2619 39.38 46.551 38 46.551H3C1.62 46.551 0.5 45.2619 0.5 43.6735V3.38774C0.5 1.79934 1.62 0.510193 3 0.510193H38ZM35.5 6.26529H5.5V40.7959H35.5V6.26529ZM20.5 12.0204L30.5 23.5306H23V35.0408H18V23.5306H10.5L20.5 12.0204ZM50.5 14.4404L40.5 22.4976V24.5636L50.5 32.6208V14.4404Z" fill="black"/>
</svg>
